<svg width="0" height="0" class="hidden">
  <symbol fill="none" xmlns="http://www.w3.org/2000/svg" viewBox="0 0 27 21" id="email">
    <path d="M25.8125 0.174316H1.4375C0.918945 0.174316 0.5 0.593262 0.5 1.11182V19.8618C0.5 20.3804 0.918945 20.7993 1.4375 20.7993H25.8125C26.3311 20.7993 26.75 20.3804 26.75 19.8618V1.11182C26.75 0.593262 26.3311 0.174316 25.8125 0.174316ZM24.6406 3.42041V18.6899H2.60938V3.42041L1.80078 2.79053L2.95215 1.31104L4.20605 2.28662H23.0469L24.3008 1.31104L25.4521 2.79053L24.6406 3.42041V3.42041ZM23.0469 2.28369L13.625 9.60791L4.20312 2.28369L2.94922 1.30811L1.79785 2.7876L2.60645 3.41748L12.6143 11.1987C12.9021 11.4223 13.2561 11.5437 13.6206 11.5437C13.9851 11.5437 14.3391 11.4223 14.627 11.1987L24.6406 3.42041L25.4492 2.79053L24.2979 1.31104L23.0469 2.28369Z" fill="#FF5722"></path>
  </symbol>
  <symbol fill="none" xmlns="http://www.w3.org/2000/svg" viewBox="0 0 34 33" id="Facebook">
    <path d="M31.7304 0.48291H2.27131C1.56285 0.48291 0.990479 1.05528 0.990479 1.76374V31.2229C0.990479 31.9313 1.56285 32.5037 2.27131 32.5037H31.7304C32.4389 32.5037 33.0113 31.9313 33.0113 31.2229V1.76374C33.0113 1.05528 32.4389 0.48291 31.7304 0.48291ZM28.032 9.82897H25.4744C23.4691 9.82897 23.0808 10.7816 23.0808 12.1825V15.2685H27.8679L27.2435 20.0996H23.0808V32.5037H18.0896V20.1036H13.9149V15.2685H18.0896V11.7062C18.0896 7.57151 20.6152 5.31805 24.3056 5.31805C26.0748 5.31805 27.5917 5.45013 28.036 5.51017V9.82897H28.032Z" fill="#FF5722"></path>
  </symbol>
  <symbol fill="none" xmlns="http://www.w3.org/2000/svg" viewBox="0 0 33 33" id="LinkedIn">
    <path d="M31.7182 0.48291H2.2591C1.55064 0.48291 0.978271 1.05528 0.978271 1.76374V31.2229C0.978271 31.9313 1.55064 32.5037 2.2591 32.5037H31.7182C32.4267 32.5037 32.999 31.9313 32.999 31.2229V1.76374C32.999 1.05528 32.4267 0.48291 31.7182 0.48291ZM10.4764 27.7686H5.72535V12.4867H10.4764V27.7686ZM8.10289 10.3973C7.55825 10.3973 7.02583 10.2358 6.57297 9.93325C6.12011 9.63066 5.76715 9.20057 5.55873 8.69738C5.3503 8.1942 5.29577 7.6405 5.40202 7.10632C5.50828 6.57214 5.77055 6.08146 6.15567 5.69634C6.5408 5.31121 7.03148 5.04894 7.56566 4.94268C8.09984 4.83643 8.65353 4.89096 9.15672 5.09939C9.65991 5.30782 10.09 5.66078 10.3926 6.11363C10.6952 6.56649 10.8567 7.09891 10.8567 7.64356C10.8527 9.16454 9.61988 10.3973 8.10289 10.3973ZM28.264 27.7686H23.5169V20.3358C23.5169 18.5626 23.4849 16.2852 21.0473 16.2852C18.5777 16.2852 18.1974 18.2144 18.1974 20.2077V27.7686H13.4544V12.4867H18.0093V14.5761H18.0734C18.7058 13.3753 20.2548 12.1065 22.5683 12.1065C27.3794 12.1065 28.264 15.2725 28.264 19.3872V27.7686V27.7686Z" fill="#FF5722"></path>
  </symbol>
  <symbol fill="none" xmlns="http://www.w3.org/2000/svg" viewBox="0 0 26 32" id="location">
    <path d="M12.2487 31.5255C12.5166 31.7169 12.8377 31.8197 13.167 31.8197C13.4963 31.8197 13.8173 31.7169 14.0853 31.5255C14.5667 31.1851 25.8796 23.0167 25.8337 12.82C25.8337 5.8359 20.1511 0.15332 13.167 0.15332C6.18291 0.15332 0.500322 5.8359 0.500322 12.8121C0.454406 23.0167 11.7673 31.1851 12.2487 31.5255ZM13.167 3.31999C18.4062 3.31999 22.667 7.58074 22.667 12.8279C22.7002 19.8547 15.7193 26.1643 13.167 28.2337C10.6162 26.1627 3.63374 19.8516 3.66699 12.82C3.66699 7.58074 7.92774 3.31999 13.167 3.31999Z" fill="#FF5722"></path>
  </symbol>
  <symbol fill="none" xmlns="http://www.w3.org/2000/svg" viewBox="0 0 21 33" id="phone">
    <path d="M16.5419 0.445312H4.87518C2.45435 0.445312 0.500183 2.39948 0.500183 4.82031V28.1536C0.500183 30.5745 2.45435 32.5286 4.87518 32.5286H16.5419C18.9627 32.5286 20.9169 30.5745 20.9169 28.1536V4.82031C20.9169 2.39948 18.9627 0.445312 16.5419 0.445312ZM13.6252 29.612H7.79185V28.1536H13.6252V29.612ZM18.3648 25.237H3.05227V4.82031H18.3648V25.237Z" fill="#FF5722"></path>
  </symbol>
  <symbol fill="none" xmlns="http://www.w3.org/2000/svg" viewBox="0 0 34 29" id="Twitter">
    <path d="M33.6651 4.17846C32.4403 4.7068 31.1074 5.08705 29.7346 5.23514C31.1599 4.38834 32.2273 3.05052 32.7365 1.4727C31.399 2.26837 29.9337 2.82631 28.4057 3.12177C27.7671 2.43903 26.9947 1.89514 26.1366 1.52396C25.2786 1.15279 24.3533 0.962307 23.4185 0.964372C19.636 0.964372 16.594 4.03036 16.594 7.7928C16.594 8.32115 16.6581 8.84949 16.7621 9.35782C11.0985 9.06163 6.04719 6.35587 2.68901 2.21318C2.07711 3.25832 1.75646 4.44834 1.76041 5.65942C1.76041 8.02896 2.96519 10.1183 4.80238 11.3471C3.71969 11.3045 2.66236 11.0069 1.71638 10.4785V10.5626C1.71638 13.8808 4.0619 16.6305 7.18793 17.2629C6.60098 17.4154 5.99718 17.4934 5.39076 17.4951C4.94647 17.4951 4.5262 17.4511 4.10192 17.391C4.96649 20.0968 7.48412 22.0621 10.4821 22.1261C8.13654 23.9633 5.19864 25.044 2.00857 25.044C1.4362 25.044 0.907853 25.024 0.359497 24.9599C3.38546 26.9012 6.97579 28.0219 10.8423 28.0219C23.3944 28.0219 30.2629 17.6232 30.2629 8.59733C30.2629 8.30113 30.2629 8.00494 30.2429 7.70875C31.5717 6.73612 32.7365 5.53134 33.6651 4.17846Z" fill="#FF5722"></path>
  </symbol>
</svg>