<svg width="60" height="30" viewBox="0 0 60 30" fill="none" xmlns="http://www.w3.org/2000/svg">
<path d="M7.83031 17.504L8.35731 12.017H20.2923C20.4163 12.017 20.5196 12.048 20.6023 12.11C20.685 12.1513 20.7573 12.265 20.8193 12.451C20.8813 12.637 20.9226 12.9263 20.9433 13.319C20.964 13.7117 20.9743 14.249 20.9743 14.931C20.9743 15.6543 20.964 16.2227 20.9433 16.636C20.9226 17.0493 20.8813 17.3593 20.8193 17.566C20.7573 17.7727 20.685 17.8967 20.6023 17.938C20.5196 17.9793 20.4163 18 20.2923 18H18.8973C18.8146 19.0127 18.5563 19.9323 18.1223 20.759C17.709 21.6063 17.1406 22.3297 16.4173 22.929C15.694 23.5283 14.826 23.9933 13.8133 24.324C12.8006 24.6547 11.664 24.82 10.4033 24.82H8.17131C6.88998 24.82 5.74298 24.6237 4.73031 24.231C3.73831 23.8383 2.89098 23.27 2.18831 22.526C1.48565 21.8027 0.948314 20.914 0.576314 19.86C0.204314 18.806 0.0183144 17.6177 0.0183144 16.295V9.816H5.62931V16.45C5.62931 17.2353 5.85665 17.8347 6.31131 18.248C6.76598 18.6613 7.49965 18.868 8.51231 18.868H11.2713C11.8706 18.868 12.3873 18.806 12.8213 18.682C13.2553 18.5787 13.4723 18.3513 13.4723 18C13.4723 17.6693 13.307 17.504 12.9763 17.504H7.83031ZM21.4592 12.017C21.6038 12.017 21.7278 11.9757 21.8312 11.893C21.9345 11.7897 21.9862 11.6657 21.9862 11.521V6.902H27.4422V11.521C27.4422 11.6657 27.4938 11.7897 27.5972 11.893C27.7005 11.9757 27.8245 12.017 27.9692 12.017C28.0932 12.017 28.2068 11.9757 28.3102 11.893C28.4135 11.7897 28.4652 11.6657 28.4652 11.521V6.902H33.9212V11.521C33.9212 11.6657 33.9728 11.7897 34.0762 11.893C34.1795 11.9757 34.3035 12.017 34.4482 12.017C34.5722 12.017 34.6858 11.9757 34.7892 11.893C34.8925 11.7897 34.9442 11.6657 34.9442 11.521V6.902H40.4002V11.521C40.4002 11.6657 40.4518 11.7897 40.5552 11.893C40.6585 11.9757 40.7722 12.017 40.8962 12.017H42.1052C42.2292 12.017 42.3325 12.048 42.4152 12.11C42.5185 12.1513 42.5908 12.265 42.6322 12.451C42.6942 12.637 42.7355 12.9263 42.7562 13.319C42.7768 13.7117 42.7872 14.249 42.7872 14.931C42.7872 15.6543 42.7768 16.2227 42.7562 16.636C42.7355 17.0493 42.6942 17.3593 42.6322 17.566C42.5908 17.7727 42.5185 17.8967 42.4152 17.938C42.3325 17.9793 42.2292 18 42.1052 18H41.1132C40.4105 18 39.7905 17.938 39.2532 17.814C38.7365 17.69 38.2612 17.411 37.8272 16.977C37.3105 17.411 36.7628 17.69 36.1842 17.814C35.6262 17.938 35.0475 18 34.4482 18C34.0142 18 33.4975 17.938 32.8982 17.814C32.2988 17.69 31.7925 17.411 31.3792 16.977C30.8418 17.411 30.3355 17.69 29.8602 17.814C29.4055 17.938 29.0542 18 28.8062 18H27.9692C27.5352 18 27.0185 17.938 26.4192 17.814C25.8198 17.69 25.3032 17.411 24.8692 16.977C24.3732 17.411 23.8875 17.69 23.4122 17.814C22.9368 17.938 22.5752 18 22.3272 18H20.2812C20.1572 18 20.0538 17.9793 19.9712 17.938C19.8678 17.8967 19.7955 17.783 19.7542 17.597C19.6922 17.3903 19.6508 17.0907 19.6302 16.698C19.6095 16.3053 19.5992 15.768 19.5992 15.086C19.5992 14.3627 19.6095 13.7943 19.6302 13.381C19.6508 12.9677 19.6922 12.668 19.7542 12.482C19.7955 12.2753 19.8678 12.1513 19.9712 12.11C20.0538 12.048 20.1572 12.017 20.2812 12.017H21.4592ZM43.2863 12.017C43.431 12.017 43.555 11.9757 43.6583 11.893C43.7617 11.7897 43.8133 11.6657 43.8133 11.521V6.902H49.4553V11.521C49.4553 11.8517 49.6207 12.017 49.9513 12.017H51.1293C51.2533 12.017 51.3567 12.048 51.4393 12.11C51.5427 12.1513 51.615 12.265 51.6563 12.451C51.7183 12.637 51.7597 12.9263 51.7803 13.319C51.801 13.7117 51.8113 14.249 51.8113 14.931C51.8113 15.6543 51.801 16.2227 51.7803 16.636C51.7597 17.0493 51.7183 17.3593 51.6563 17.566C51.615 17.7727 51.5427 17.8967 51.4393 17.938C51.3567 17.9793 51.2533 18 51.1293 18H50.1683C49.4657 18 48.8147 17.938 48.2153 17.814C47.6367 17.69 47.1303 17.411 46.6963 16.977C46.2003 17.411 45.694 17.69 45.1773 17.814C44.6813 17.938 44.2267 18 43.8133 18H42.1083C41.9843 18 41.881 17.9793 41.7983 17.938C41.695 17.8967 41.6227 17.783 41.5813 17.597C41.5193 17.3903 41.478 17.0907 41.4573 16.698C41.4367 16.3053 41.4263 15.768 41.4263 15.086C41.4263 14.3627 41.4367 13.7943 41.4573 13.381C41.478 12.9677 41.5193 12.668 41.5813 12.482C41.6227 12.2753 41.695 12.1513 41.7983 12.11C41.881 12.048 41.9843 12.017 42.1083 12.017H43.2863ZM48.7423 29.067H44.3093V24.789H48.7423V29.067ZM50.9743 23.952H42.1083V19.674H50.9743V23.952ZM53.0208 12.017C53.1448 12.017 53.2585 11.9757 53.3618 11.893C53.4651 11.7897 53.5168 11.6657 53.5168 11.521V6.902H59.1278V12.017C59.1278 13.009 58.9831 13.877 58.6938 14.621C58.4251 15.365 58.0428 15.985 57.5468 16.481C57.0508 16.977 56.4515 17.3593 55.7488 17.628C55.0668 17.876 54.3228 18 53.5168 18H51.1298C51.0058 18 50.9025 17.9793 50.8198 17.938C50.7165 17.8967 50.6441 17.783 50.6028 17.597C50.5408 17.3903 50.4995 17.0907 50.4788 16.698C50.4581 16.3053 50.4478 15.768 50.4478 15.086C50.4478 14.3627 50.4581 13.7943 50.4788 13.381C50.4995 12.9677 50.5408 12.668 50.6028 12.482C50.6441 12.2753 50.7165 12.1513 50.8198 12.11C50.9025 12.048 51.0058 12.017 51.1298 12.017H53.0208ZM59.9958 5.197H51.1298V0.95H59.9958V5.197Z" fill="#545454"/>
</svg>
